# xmcd
#
# Track frame offsets: 
#        150
#        12312
#        26352
#        40892
#        55470
#        67890
#        81217
#        91937
#        104000
#        116530
#        134870
#        148582
#        160305
#        172217
#        184755
#        197355
#
# Disc length: 2773 seconds
#
# Revision: 3
# Processed by: cddbd v1.5.2PL0 Copyright (c) Steve Scherf et al.
# Submitted via: ExactAudioCopyFreeDBPlugin 1.0
#
DISCID=e10ad310
DTITLE=Dolly Parton - Greatest Hits
DYEAR=2002
DGENRE=Country
TTITLE0=Jolene
TTITLE1=I Will Always Love You
TTITLE2=We Used To
TTITLE3=Harper Valley P.T.A.
TTITLE4=D.I.V.O.R.C.E
TTITLE5=Here You Come Again
TTITLE6=Lovin' You
TTITLE7=Bobby's Arms
TTITLE8=9 To 5
TTITLE9=Do I Ever Cross Your Mind?
TTITLE10=Two Doors Down
TTITLE11=Hold Me
TTITLE12=It's My Time
TTITLE13=In the Ghetto
TTITLE14=Mama Say A Prayer
TTITLE15=Love is Like A Butterfly
EXTD=YEAR: 2002
EXTT0=
EXTT1=
EXTT2=
EXTT3=
EXTT4=
EXTT5=
EXTT6=
EXTT7=
EXTT8=
EXTT9=
EXTT10=
EXTT11=
EXTT12=
EXTT13=
EXTT14=
EXTT15=
PLAYORDER=
